<svg xmlns="http://www.w3.org/2000/svg" width="50" height="50" viewBox="-174 176 50 50"><path d="M-149.018 225.984c13.8 0 25-11.2 25-25s-11.2-25-25-25-25 11.2-25 25 11.2 25 25 25" fill="#ed1c24"/><path d="M-157.118 189.884c-4.7-.2-6 6.5-6.3 7.7 0 .1-.1.1-.1.1-1.5-.2-2.3-.5-2.3-.5l-.3.9c1 .5 2.4.6 2.4.6-.3 1.8-1.7 5.2-1.7 5.2s-1.3-.4-2.9-.4c-2.1 0-2.8 1-2.9 1.6-.1 1.6 1.9 2.4 3.3 2.4 2.7 0 4.2-1.5 4.2-1.5s7.7 2.9 15.8 2.9c10.6 0 19.5-2.8 19.5-2.8l-.3-1s-6.4 2.2-18.8 2.1c-8.5-.1-15-2.6-15-2.6s.2-.4.4-.7c.9-1.7 1.9-5.2 1.9-5.2s5.8-1.6 5.8-6.3c.1-1.5-1.3-2.5-2.7-2.5zm.3 1.3c.9 0 1.2.7 1.2 1.4-.4 3.9-4.3 4.8-4.3 4.8s.9-6.2 3.1-6.2zm9.3 3.2c-1 0-1.7.4-1.7 1.3s.8 1.2 1.7 1.2 1.7-.4 1.7-1.3c0-1-1-1.2-1.7-1.2zm13.1 3.3c-2.8 0-4.3 2.4-4.4 3.9 0 .3-.1.3-.1.3-.1.1-1 1.2-2.3 1.2-1 0-1.2-.8-1.2-1.3 0-.6.5-2.8 1.8-2.8.7 0 1.2.6 1.2.6l.4-1.3s-.6-.5-1.9-.5c-2.7 0-4.6 2-4.6 3.9 0 .3-.1.4-.1.4-.1.1-.7.9-1.6.9-.6 0-.6-.5-.6-.7 0-.3 1.2-4.3 1.2-4.3l-3.1.1-1 3.9s-1.7 1.2-4.1 1.4c-1.2.1-1.7-.7-1.7-1.1v-.2s.5.1.9.1c.3 0 3.9-.3 3.9-2.5 0-1.3-1.3-1.7-2.9-1.7-2.9 0-5 1.8-5 4 0 2 1.7 2.8 3.9 2.8 2.5 0 4.9-1.5 4.9-1.5s.1 1.5 2.1 1.5 3.6-1.5 3.6-1.5.9 1.4 2.9 1.4 3.6-1.7 3.6-1.7.6 1.5 2.6 1.5c1.6 0 2.4-1 2.4-1s.4 1 1.8 1c1.7 0 2.9-1.2 2.9-1.2l-.3-1s-.6.5-1.1.5c-.4 0-.6-.3-.6-.6 0-.7 1.2-4.3 1.2-4.3l-2.8.1-.1.4c.1.1-.3-.7-1.8-.7zm-20 1.1c.4 0 .7.3.7.6-.1 2-2.5 1.7-2.5 1.7s.4-2.3 1.8-2.3zm20.5.1c.6 0 .9.5.9.8 0 .1-.3 3.4-2 3.4-.8 0-.8-.9-.8-1.1.1-.6.6-3.1 1.9-3.1zm-34.8 5.8h.4c1.2.1 2.3.5 2.3.5s-1.2 1-2.3 1c-.8 0-1.3-.5-1.3-.8 0-.5.5-.7.9-.7z" fill="#fff"/></svg>